# xmcd
#
# Track frame offsets:
#	150
#	17540
#	39955
#	57210
#	71080
#	84275
#	100053
#	119413
#	134738
#	150875
#	164588
#	178178
#
# Disc length: 2544 seconds
# Revision: 3
# Processed by: cddbd v1.5.2PL0 Copyright (c) Steve Scherf et al.
# Submitted via: dBpowerAMP V12.0
#
DISCID=9609ee0c
DTITLE=Buddy Blue - Guttersnipes 'n' Zealots
DYEAR=1991
DGENRE=Blues/Rock
TTITLE0=No Right to Die
TTITLE1=Hey, Morris
TTITLE2=Blind Monkeys
TTITLE3=The Duke of J Street
TTITLE4=Gun Sale at the Church
TTITLE5=Somethin' Inhuman
TTITLE6=Someone You Knew
TTITLE7=Saturday Night
TTITLE8=Anyway
TTITLE9=Upsettin' Me
TTITLE10=Lazy Blues
TTITLE11=Prowlin' Tomcat Blues
EXTD=
EXTT0=
EXTT1=
EXTT2=
EXTT3=
EXTT4=
EXTT5=
EXTT6=
EXTT7=
EXTT8=
EXTT9=
EXTT10=
EXTT11=
PLAYORDER=
